<svg id="Layer_1" enable-background="new 0 0 256 256" height="512" viewBox="0 0 256 256" width="512" xmlns="http://www.w3.org/2000/svg"><g><g><path d="m86.797 252 41.184-91.416-55.298-24.912-41.184 91.416 40.243-15.5z" fill="#fcc24c"/></g><g><path d="m169.203 252-41.184-91.416 55.298-24.912 41.184 91.416-40.243-15.5z" fill="#fcc24c"/></g><g><path d="m212.401 222.428 12.1 4.66-41.184-91.416-8.313 3.745z" fill="#dea42e"/></g><g><path d="m43.599 222.428-12.1 4.66 41.184-91.416 8.313 3.745z" fill="#fce06a"/></g><g><path d="m169.203 254c-.785 0-1.5-.459-1.823-1.179l-41.184-91.416c-.454-1.007-.005-2.191 1.002-2.645l55.297-24.912c1.008-.453 2.191-.005 2.645 1.002l41.185 91.416c.333.739.187 1.606-.37 2.196-.556.589-1.416.785-2.172.492l-38.356-14.773-14.349 38.518c-.283.76-.997 1.273-1.808 1.301-.023 0-.045 0-.067 0zm-38.539-92.414 38.363 85.156 13.356-35.853c.187-.5.565-.906 1.053-1.125.486-.219 1.042-.235 1.54-.042l35.702 13.751-38.364-85.155z" fill="#690589"/></g><g><path d="m86.797 254c-.021 0-.044 0-.066-.001-.811-.027-1.524-.541-1.808-1.301l-14.349-38.518-38.356 14.773c-.753.293-1.614.098-2.172-.492-.557-.589-.703-1.457-.37-2.196l41.185-91.416c.453-1.007 1.637-1.457 2.645-1.002l55.297 24.912c1.007.454 1.456 1.638 1.002 2.645l-41.185 91.417c-.323.72-1.038 1.179-1.823 1.179zm-15.055-44.413c.28 0 .561.059.821.176.487.22.866.625 1.053 1.125l13.356 35.853 38.363-85.156-51.65-23.269-38.364 85.155 35.702-13.751c.232-.088.476-.133.719-.133z" fill="#690589"/></g><g><ellipse cx="128" cy="101.04" fill="#526faa" rx="97.04" ry="97.04" transform="matrix(.707 -.707 .707 .707 -33.956 120.104)"/></g><g><path d="m128 4c-1.677 0-3.344.043-5 .127 51.27 2.602 92.04 44.997 92.04 96.914s-40.77 94.311-92.04 96.914c1.656.084 3.323.127 5 .127 53.594 0 97.04-43.447 97.04-97.04 0-53.595-43.446-97.042-97.04-97.042z" fill="#34518c"/></g><g><path d="m128 198.081c1.677 0 3.344-.043 5-.127-51.27-2.602-92.041-44.997-92.041-96.914.001-51.917 40.771-94.311 92.041-96.913-1.656-.084-3.323-.127-5-.127-53.594 0-97.04 43.447-97.04 97.04 0 53.594 43.446 97.041 97.04 97.041z" fill="#708dc8"/></g><g><path d="m128 200.081c-54.611 0-99.04-44.429-99.04-99.041s44.429-99.04 99.04-99.04 99.04 44.429 99.04 99.041-44.429 99.04-99.04 99.04zm0-194.081c-52.405 0-95.04 42.635-95.04 95.041s42.635 95.041 95.04 95.041 95.04-42.635 95.04-95.041-42.635-95.041-95.04-95.041z" fill="#690589"/></g><g><g><path d="m128 146.145-44.521 23.406 8.503-49.575-36.018-35.109 49.776-7.232 22.26-45.105 22.26 45.105 49.776 7.232-36.018 35.109 8.503 49.575z" fill="#fcc24c"/></g><g><g><path d="m200.036 84.867-9.235-1.342-35.411 34.518 8.012 46.714 9.119 4.794-8.503-49.575z" fill="#dea42e"/></g></g><g><g><path d="m55.964 84.867 9.235-1.342 35.411 34.518-8.012 46.714-9.119 4.794 8.503-49.575z" fill="#fce06a"/></g></g><g><path d="m172.521 171.551c-.318 0-.638-.076-.931-.23l-43.59-22.916-43.59 22.916c-.673.355-1.489.296-2.106-.152-.615-.448-.924-1.206-.796-1.956l8.324-48.539-35.265-34.375c-.545-.531-.741-1.326-.506-2.05s.861-1.251 1.615-1.361l48.734-7.082 21.795-44.162c.337-.683 1.032-1.115 1.794-1.115s1.457.432 1.794 1.115l21.795 44.162 48.734 7.082c.754.109 1.38.637 1.615 1.361s.039 1.519-.506 2.05l-35.266 34.375 8.325 48.539c.128.75-.181 1.508-.796 1.956-.346.253-.759.382-1.173.382zm-112.259-85.287 33.116 32.28c.471.459.686 1.122.575 1.77l-7.817 45.581 40.934-21.52c.582-.307 1.279-.307 1.861 0l40.934 21.52-7.818-45.581c-.11-.648.104-1.311.575-1.77l33.117-32.28-45.766-6.65c-.651-.094-1.214-.503-1.506-1.094l-20.467-41.471-20.467 41.471c-.292.59-.854 1-1.506 1.094z" fill="#690589"/></g><g><path d="m98.171 139.232c-.112 0-.226-.01-.34-.029-1.089-.187-1.82-1.221-1.634-2.309l2.058-12c.188-1.089 1.224-1.817 2.31-1.633 1.089.187 1.82 1.221 1.634 2.309l-2.058 12c-.168.974-1.013 1.662-1.97 1.662z" fill="#690589"/></g></g></g></svg>